<svg xmlns="http://www.w3.org/2000/svg" viewBox="0 0 109 34" width="109" height="34">
  <!-- R icon with circle -->
  <path d="M16.0783 20.4569C17.4055 23.4623 20.4128 25.5601 23.9092 25.5601C25.8115 25.5601 27.3539 27.0976 27.3628 28.9975C27.3718 30.9177 25.7555 32.4768 23.8353 32.4678C16.6034 32.4338 10.6027 27.4355 8.95007 20.7048C8.94113 20.6678 8.93398 20.6309 8.92802 20.5933L8.90716 20.4574M2.01073 4.95418C2.01073 3.04651 3.55724 1.5 5.4649 1.5H15.7947C21.0296 1.5 25.2728 5.74382 25.2728 10.9781C25.2728 16.213 21.029 20.4563 15.7947 20.4563H8.90716M2.01073 4.95418V29.0518C2.01073 30.9565 3.55486 32.5 5.45894 32.5C7.36363 32.5 8.90716 30.9559 8.90716 29.0518V4.95417C8.90716 3.04949 7.36363 1.50595 5.45894 1.50595C3.55426 1.50595 2.01073 3.05009 2.01073 4.95418ZM8.90716 13.5491H15.7947C17.2142 13.5491 18.365 12.3983 18.365 10.9787C18.365 9.55914 17.2142 8.40834 15.7947 8.40834H8.90716M27.3634 29.0136C27.3634 30.9213 25.8169 32.4678 23.9093 32.4678C22.0016 32.4678 20.4551 30.9213 20.4551 29.0136C20.4551 27.106 22.0016 25.5595 23.9093 25.5595C25.8169 25.5601 27.3634 27.106 27.3634 29.0136ZM8.90717 4.95358C8.90717 6.86125 7.36065 8.40717 5.45358 8.40717C3.54592 8.40717 2 6.86065 2 4.95358C2 3.04651 3.54651 1.5 5.45358 1.5C7.36065 1.5 8.90717 3.04592 8.90717 4.95358Z" fill="none" stroke="currentColor" stroke-width="1"/>
  <!-- e -->
  <path d="M57.6182 20.4787H61.1571C60.5968 23.6342 57.8247 25.6691 54.1678 25.6691C49.3018 25.6691 46.5887 21.8353 46.5887 17.9425C46.5887 14.0202 49.0069 10.3338 53.8729 10.3338C58.8569 10.3338 61.0982 13.9612 61.0982 17.5001C61.0982 18.0015 61.0687 18.4438 61.0392 18.7387H50.0686C50.334 21.1275 51.8675 22.661 54.1678 22.661C56.0257 22.661 57.2349 21.8942 57.6182 20.4787ZM53.8729 13.047C51.838 13.047 50.5404 14.1087 50.1571 16.35H57.4708C57.3233 14.4626 56.0257 13.047 53.8729 13.047Z" fill="currentColor"/>
  <!-- r -->
  <path d="M46.5057 13.6073H44.5416C42.2413 13.6073 41.3271 15.5832 41.3271 18.4143V25.4331H37.6997V10.5698H41.3271V13.1944C42.0644 11.307 43.2145 10.5698 45.1314 10.5698H46.5057V13.6073Z" fill="currentColor"/>
  <!-- l -->
  <path d="M62.6554 25.4331V6.08717H66.2533V25.4331H62.6554Z" fill="currentColor"/>
  <!-- a -->
  <path d="M74.4868 10.3338C78.2616 10.3338 80.9158 12.5162 80.9158 15.8781V25.4331H77.3474V23.2213C76.7281 24.6959 75.0176 25.6691 72.8943 25.6691C69.9452 25.6691 67.9398 23.7817 67.9398 21.216C67.9398 18.3259 70.1811 16.5269 73.5136 16.5269H76.2562C76.9935 16.5269 77.3474 16.114 77.3474 15.5242C77.3474 14.0792 76.2267 13.047 74.3098 13.047C72.3929 13.047 71.2428 14.2561 71.1838 15.5832H67.9398C68.1168 12.6341 70.6235 10.3338 74.4868 10.3338ZM73.7495 22.9854C76.0203 22.9854 77.3474 21.3929 77.3474 19.1516V18.9157H74.0149C72.4814 18.9157 71.4492 19.7709 71.4492 21.0685C71.4492 22.2186 72.3929 22.9854 73.7495 22.9854Z" fill="currentColor"/>
  <!-- t -->
  <path d="M84.3545 6.08716H87.9818V10.5698H92.1105V13.6073H87.9818V20.0953C87.9818 21.5993 88.7781 22.3661 90.1347 22.3661H92.1105V25.4331H89.7218C86.4778 25.4331 84.3545 23.5457 84.3545 20.2428V13.6073H81.4349V10.5698H84.3545V6.08716Z" fill="currentColor"/>
  <!-- s -->
  <path d="M99.1559 25.6691C95.558 25.6691 93.1692 23.6637 92.9923 20.4787H96.2952C96.4427 21.8942 97.5339 22.779 99.1559 22.779C100.571 22.779 101.515 22.0712 101.515 21.1865C101.515 17.8835 93.3757 21.039 93.3757 14.7575C93.3757 12.1623 95.6465 10.3338 98.7135 10.3338C102.193 10.3338 104.582 12.2507 104.73 15.1408H101.427C101.22 13.7548 99.9521 13.047 98.802 13.047C97.5044 13.047 96.6491 13.6368 96.6491 14.6395C96.6491 17.854 104.907 14.3151 104.907 21.039C104.907 23.8406 102.636 25.6691 99.1559 25.6691Z" fill="currentColor"/>
  <!-- (c) symbol -->
  <path d="M106.614 9.29794C105.666 9.29794 104.986 8.61764 104.986 7.67021C104.986 6.72279 105.666 6.04248 106.614 6.04248C107.561 6.04248 108.242 6.72279 108.242 7.67021C108.242 8.61764 107.561 9.29794 106.614 9.29794ZM106.614 8.95153C107.353 8.95153 107.883 8.4173 107.883 7.67021C107.883 6.92312 107.353 6.3889 106.614 6.3889C105.871 6.3889 105.341 6.92312 105.345 7.67021C105.341 8.4173 105.871 8.95153 106.614 8.95153ZM106.618 8.60929C106.096 8.60929 105.671 8.27957 105.671 7.66186C105.671 7.03999 106.109 6.71027 106.618 6.71027C107.11 6.71027 107.461 6.98573 107.511 7.40727H107.014C106.989 7.2278 106.831 7.11511 106.618 7.11511C106.355 7.11511 106.146 7.29876 106.146 7.66186C106.146 8.0208 106.355 8.20862 106.618 8.20862C106.835 8.20862 106.994 8.09175 107.031 7.91646H107.499C107.465 8.338 107.119 8.60929 106.618 8.60929Z" fill="currentColor"/>
</svg>
